<mxfile host="app.diagrams.net" agent="Mozilla/5.0 (Windows NT 10.0; Win64; x64) AppleWebKit/537.36 (KHTML, like Gecko) Chrome/137.0.0.0 Safari/537.36" version="27.1.6">
  <diagram name="Страница — 1" id="IwtGVHbIfZe15g9Hv_Bw">
    <mxGraphModel>
      <root>
        <mxCell id="0" />
        <mxCell id="1" parent="0" />
        <mxCell id="2" value="Сервер 1" style="whiteSpace=wrap;strokeWidth=2;" vertex="1" parent="1">
          <mxGeometry x="551" y="8" width="126" height="54" as="geometry" />
        </mxCell>
        <mxCell id="3" value="Сервер 2" style="whiteSpace=wrap;strokeWidth=2;" vertex="1" parent="1">
          <mxGeometry x="799" y="286" width="126" height="54" as="geometry" />
        </mxCell>
        <mxCell id="4" value="База данных 1" style="whiteSpace=wrap;strokeWidth=2;" vertex="1" parent="1">
          <mxGeometry x="317" y="540" width="165" height="54" as="geometry" />
        </mxCell>
        <mxCell id="5" value="API сервис" style="whiteSpace=wrap;strokeWidth=2;" vertex="1" parent="1">
          <mxGeometry x="914" y="413" width="139" height="54" as="geometry" />
        </mxCell>
        <mxCell id="6" value="Сервер администрирования" style="whiteSpace=wrap;strokeWidth=2;" vertex="1" parent="1">
          <mxGeometry x="732" y="135" width="260" height="78" as="geometry" />
        </mxCell>
        <mxCell id="7" value="Сервер кэширования" style="whiteSpace=wrap;strokeWidth=2;" vertex="1" parent="1">
          <mxGeometry x="132" y="413" width="216" height="54" as="geometry" />
        </mxCell>
        <mxCell id="8" value="Пользовательский интерфейс" style="whiteSpace=wrap;strokeWidth=2;" vertex="1" parent="1">
          <mxGeometry x="1164" y="667" width="260" height="78" as="geometry" />
        </mxCell>
        <mxCell id="9" value="Система аутентификации" style="whiteSpace=wrap;strokeWidth=2;" vertex="1" parent="1">
          <mxGeometry x="1296" y="540" width="249" height="54" as="geometry" />
        </mxCell>
        <mxCell id="10" value="HTTP запрос" style="curved=1;startArrow=none;endArrow=block;exitX=1.01;exitY=0.66;entryX=1;entryY=0.17;" edge="1" parent="1" source="2" target="3">
          <mxGeometry relative="1" as="geometry">
            <Array as="points">
              <mxPoint x="1086" y="99" />
              <mxPoint x="1086" y="250" />
            </Array>
          </mxGeometry>
        </mxCell>
        <mxCell id="11" value="HTTP ответ" style="curved=1;startArrow=none;endArrow=block;exitX=0;exitY=0.15;entryX=0.64;entryY=1;" edge="1" parent="1" source="3" target="2">
          <mxGeometry relative="1" as="geometry">
            <Array as="points">
              <mxPoint x="654" y="250" />
              <mxPoint x="654" y="99" />
            </Array>
          </mxGeometry>
        </mxCell>
        <mxCell id="12" value="" style="curved=1;startArrow=none;endArrow=block;exitX=0.42;exitY=1;entryX=0.99;entryY=0.01;" edge="1" parent="1" source="2" target="4">
          <mxGeometry relative="1" as="geometry">
            <Array as="points">
              <mxPoint x="590" y="99" />
              <mxPoint x="590" y="504" />
            </Array>
          </mxGeometry>
        </mxCell>
        <mxCell id="13" value="Запрос данных" style="curved=1;startArrow=none;endArrow=block;exitX=0.55;exitY=0.01;entryX=0;entryY=0.88;" edge="1" parent="1" source="4" target="2">
          <mxGeometry relative="1" as="geometry">
            <Array as="points">
              <mxPoint x="420" y="504" />
              <mxPoint x="420" y="99" />
            </Array>
          </mxGeometry>
        </mxCell>
        <mxCell id="14" value="Запись данных" style="curved=1;startArrow=none;endArrow=block;exitX=0;exitY=0.21;entryX=0;entryY=0.64;" edge="1" parent="1" source="4" target="2">
          <mxGeometry relative="1" as="geometry">
            <Array as="points">
              <mxPoint x="65" y="504" />
              <mxPoint x="65" y="99" />
            </Array>
          </mxGeometry>
        </mxCell>
        <mxCell id="15" value="" style="curved=1;startArrow=none;endArrow=block;exitX=1;exitY=0.93;entryX=0.66;entryY=0;" edge="1" parent="1" source="3" target="5">
          <mxGeometry relative="1" as="geometry">
            <Array as="points">
              <mxPoint x="1037" y="377" />
            </Array>
          </mxGeometry>
        </mxCell>
        <mxCell id="16" value="Запрос к данным" style="curved=1;startArrow=none;endArrow=block;exitX=0;exitY=0.68;entryX=0.77;entryY=0.01;" edge="1" parent="1" source="5" target="4">
          <mxGeometry relative="1" as="geometry">
            <Array as="points">
              <mxPoint x="505" y="504" />
            </Array>
          </mxGeometry>
        </mxCell>
        <mxCell id="17" value="Ответ на запрос" style="curved=1;startArrow=none;endArrow=block;exitX=0.41;exitY=0;entryX=0.82;entryY=1;" edge="1" parent="1" source="5" target="3">
          <mxGeometry relative="1" as="geometry">
            <Array as="points">
              <mxPoint x="956" y="377" />
            </Array>
          </mxGeometry>
        </mxCell>
        <mxCell id="18" value="SSH доступ" style="curved=1;startArrow=none;endArrow=block;exitX=1.01;exitY=0.72;entryX=0.67;entryY=0;" edge="1" parent="1" source="2" target="6">
          <mxGeometry relative="1" as="geometry">
            <Array as="points">
              <mxPoint x="948" y="99" />
            </Array>
          </mxGeometry>
        </mxCell>
        <mxCell id="19" value="Мониторинг" style="curved=1;startArrow=none;endArrow=block;exitX=0.36;exitY=0;entryX=1.01;entryY=0.92;" edge="1" parent="1" source="6" target="2">
          <mxGeometry relative="1" as="geometry">
            <Array as="points">
              <mxPoint x="791" y="99" />
            </Array>
          </mxGeometry>
        </mxCell>
        <mxCell id="20" value="Производственные данные" style="curved=1;startArrow=none;endArrow=block;exitX=0.5;exitY=1;entryX=0.5;entryY=0;" edge="1" parent="1" source="6" target="3">
          <mxGeometry relative="1" as="geometry">
            <Array as="points" />
          </mxGeometry>
        </mxCell>
        <mxCell id="21" value="" style="curved=1;startArrow=none;endArrow=block;exitX=0;exitY=0.66;entryX=0.8;entryY=0;" edge="1" parent="1" source="3" target="7">
          <mxGeometry relative="1" as="geometry">
            <Array as="points">
              <mxPoint x="393" y="377" />
            </Array>
          </mxGeometry>
        </mxCell>
        <mxCell id="22" value="Кэшированные данные" style="curved=1;startArrow=none;endArrow=block;exitX=0.57;exitY=0;entryX=0;entryY=0.63;" edge="1" parent="1" source="7" target="3">
          <mxGeometry relative="1" as="geometry">
            <Array as="points">
              <mxPoint x="278" y="377" />
            </Array>
          </mxGeometry>
        </mxCell>
        <mxCell id="23" value="Запрос кэширования" style="curved=1;startArrow=none;endArrow=block;exitX=0.36;exitY=0;entryX=0;entryY=0.67;" edge="1" parent="1" source="7" target="2">
          <mxGeometry relative="1" as="geometry">
            <Array as="points">
              <mxPoint x="170" y="377" />
              <mxPoint x="170" y="99" />
            </Array>
          </mxGeometry>
        </mxCell>
        <mxCell id="24" value="" style="curved=1;startArrow=none;endArrow=block;exitX=1.01;exitY=0.57;entryX=1;entryY=0.14;" edge="1" parent="1" source="2" target="8">
          <mxGeometry relative="1" as="geometry">
            <Array as="points">
              <mxPoint x="1637" y="99" />
              <mxPoint x="1637" y="631" />
            </Array>
          </mxGeometry>
        </mxCell>
        <mxCell id="25" value="Пользовательский запрос" style="curved=1;startArrow=none;endArrow=block;exitX=0.22;exitY=0.01;entryX=1.01;entryY=0.64;" edge="1" parent="1" source="8" target="2">
          <mxGeometry relative="1" as="geometry">
            <Array as="points">
              <mxPoint x="1154" y="631" />
              <mxPoint x="1154" y="99" />
            </Array>
          </mxGeometry>
        </mxCell>
        <mxCell id="26" value="Отображение данных" style="curved=1;startArrow=none;endArrow=block;exitX=0;exitY=0.26;entryX=0.24;entryY=1;" edge="1" parent="1" source="8" target="3">
          <mxGeometry relative="1" as="geometry">
            <Array as="points">
              <mxPoint x="786" y="631" />
              <mxPoint x="786" y="377" />
            </Array>
          </mxGeometry>
        </mxCell>
        <mxCell id="27" value="" style="curved=1;startArrow=none;endArrow=block;exitX=1;exitY=0.69;entryX=0.5;entryY=0.01;" edge="1" parent="1" source="5" target="9">
          <mxGeometry relative="1" as="geometry">
            <Array as="points">
              <mxPoint x="1421" y="504" />
            </Array>
          </mxGeometry>
        </mxCell>
        <mxCell id="28" value="Проверка пользователя" style="curved=1;startArrow=none;endArrow=block;exitX=0.64;exitY=1.01;entryX=0.91;entryY=0.01;" edge="1" parent="1" source="9" target="8">
          <mxGeometry relative="1" as="geometry">
            <Array as="points">
              <mxPoint x="1502" y="631" />
            </Array>
          </mxGeometry>
        </mxCell>
        <mxCell id="29" value="Ответ на аутентификацию" style="curved=1;startArrow=none;endArrow=block;exitX=0.28;exitY=1.01;entryX=0.5;entryY=0.01;" edge="1" parent="1" source="9" target="8">
          <mxGeometry relative="1" as="geometry">
            <Array as="points">
              <mxPoint x="1294" y="631" />
            </Array>
          </mxGeometry>
        </mxCell>
      </root>
    </mxGraphModel>
  </diagram>
</mxfile>
